<svg xmlns="http://www.w3.org/2000/svg" width="928" height="559" fill="none"><rect width="928" height="556.084" y="1" fill="#fff" rx="16"/><g clip-path="url(#a)"><path fill="#C6E7FF" fill-rule="evenodd" d="M37.28 534.468c14.706 0 26.628-11.912 26.628-26.607 0-14.694-11.922-26.607-26.628-26.607-14.707 0-26.629 11.913-26.629 26.607 0 14.695 11.922 26.607 26.629 26.607Z" clip-rule="evenodd"/><mask id="b" width="54" height="54" x="10" y="481" maskUnits="userSpaceOnUse" style="mask-type:alpha"><path fill="#fff" fill-rule="evenodd" d="M37.28 534.468c14.706 0 26.628-11.912 26.628-26.607 0-14.694-11.922-26.607-26.628-26.607-14.707 0-26.629 11.913-26.629 26.607 0 14.695 11.922 26.607 26.629 26.607Z" clip-rule="evenodd"/></mask><g fill="#0096FF" mask="url(#b)"><path d="M31.244 516.407a1.292 1.292 0 0 0-1.88-.148 1.44 1.44 0 0 0-.14 1.968c1.94 2.362 5.227 3.773 8.794 3.773 3.535 0 6.809-1.392 8.752-3.724a1.442 1.442 0 0 0-.126-1.97 1.294 1.294 0 0 0-1.881.133c-1.425 1.708-4.01 2.77-6.745 2.77-2.758 0-5.355-1.074-6.774-2.802Zm8.909-16.909c0-.771-.596-1.396-1.332-1.396-.737 0-1.333.625-1.333 1.396v9.409c0 .723-.563 1.313-1.254 1.313h-.844c-.737 0-1.333.625-1.333 1.395 0 .771.596 1.396 1.333 1.396h.844c2.162 0 3.919-1.841 3.919-4.104v-9.409Zm9.847.323c0-1.006-.778-1.821-1.739-1.821-.96 0-1.739.815-1.739 1.821v3.928c0 1.006.778 1.82 1.74 1.82.96 0 1.738-.814 1.738-1.82v-3.928Zm-20.523-.001c0-1.006-.777-1.82-1.738-1.82S26 498.814 26 499.82v3.929c0 1.006.778 1.82 1.739 1.82.96 0 1.738-.814 1.738-1.82v-3.929Z"/></g></g><path fill="#A2A6B1" fill-rule="evenodd" d="M46.045 302.877H37.39v-8.647a1.442 1.442 0 0 0-2.885 0v8.647h-8.654a1.442 1.442 0 1 0 0 2.883h8.654v8.647a1.442 1.442 0 0 0 2.885 0v-8.647h8.654a1.442 1.442 0 0 0 0-2.883Z" clip-rule="evenodd"/><mask id="c" width="31" height="30" x="21" y="22" maskUnits="userSpaceOnUse" style="mask-type:alpha"><path fill="#fff" d="M21.675 22.445h29.877v28.948H21.675z"/></mask><g mask="url(#c)"><path fill="url(#d)" fill-rule="evenodd" d="M37.074 23.169a1.917 1.917 0 0 1 1.33-.546h10.723c1.032 0 2.003.829 2.003 1.833v10.452c0 .485-.259.941-.61 1.284l-3.906 3.751a1.022 1.022 0 0 1-.208.202l-7.45 7.274c-.349.341-.832.53-1.327.53H26.42l-3.04 2.97a1.02 1.02 0 0 1-.714.297.995.995 0 0 1-.706-.291c-.4-.388-.367-1.017.032-1.405l3.259-3.104v-10.76c0-.484.127-.942.477-1.285l11.347-11.202Zm10.464 1.44H39.04v8.328l8.497-8.327Zm-10.54 1.518-5.619 5.515v8.744L37 34.923v-8.796Zm-7.662 7.52-2.043 2.076v8.707l2.043-2.058v-8.725Zm4.915 6.688h9.069l-5.762 5.628h-9.096l5.79-5.628Z" clip-rule="evenodd"/></g><path fill="#F4FAFF" fill-rule="evenodd" d="M36.614 239.132c12.133 0 21.968-9.53 21.968-21.286 0-11.756-9.835-21.285-21.968-21.285s-21.968 9.529-21.968 21.285 9.835 21.286 21.968 21.286Z" clip-rule="evenodd"/><path fill="#0096FF" fill-rule="evenodd" d="M33.181 215.577h1.145a1.14 1.14 0 0 0 1.144-1.136 1.14 1.14 0 0 0-1.144-1.136H33.18a1.14 1.14 0 0 0-1.144 1.136 1.14 1.14 0 0 0 1.145 1.136Zm0 2.269a1.14 1.14 0 0 0-1.144 1.136 1.14 1.14 0 0 0 1.145 1.135h6.865a1.14 1.14 0 0 0 1.144-1.135 1.14 1.14 0 0 0-1.144-1.136h-6.865Zm12.587-3.474a1.464 1.464 0 0 0-.07-.306v-.102a1.213 1.213 0 0 0-.217-.318l-6.865-6.812a1.215 1.215 0 0 0-.32-.215.356.356 0 0 0-.103 0 1.01 1.01 0 0 0-.378-.125h-6.922c-1.896 0-3.433 1.525-3.433 3.406v15.893c0 1.881 1.537 3.405 3.433 3.405h11.442c1.896 0 3.432-1.524 3.432-3.405v-11.421Zm-6.865-4.007 2.963 2.941h-1.82a1.14 1.14 0 0 1-1.143-1.135v-1.806Zm4.576 15.429a1.14 1.14 0 0 1-1.144 1.135H30.893a1.14 1.14 0 0 1-1.144-1.135V209.9a1.14 1.14 0 0 1 1.144-1.135h5.721v3.406c0 1.881 1.537 3.406 3.433 3.406h3.432v10.217Zm-3.432-3.407h-6.865a1.14 1.14 0 0 0-1.145 1.136 1.14 1.14 0 0 0 1.145 1.135h6.865a1.14 1.14 0 0 0 1.144-1.135 1.14 1.14 0 0 0-1.144-1.136Z" clip-rule="evenodd"/><path fill="#A2A6B1" fill-rule="evenodd" d="m47.163 400.377-4.278-4.244a10.38 10.38 0 1 0-15.826.433 10.38 10.38 0 0 0 14.223 1.17l4.244 4.243a1.151 1.151 0 0 0 1.637 0 1.152 1.152 0 0 0 0-1.602Zm-12.35-2.64a8.073 8.073 0 1 1 0-16.145 8.073 8.073 0 0 1 0 16.145Z" clip-rule="evenodd"/><path fill="#EAEBEE" d="M0 72.839h73.228v1.331H0z"/><path stroke="#EAEBEE" stroke-width=".666" d="M.333 73.171h72.562v.666H.333z"/><path stroke="#EAEBEE" stroke-linecap="square" d="m73.228 1.458.666 556.084"/><path fill="#A2A6B1" fill-rule="evenodd" d="m45.243 126.781-6.97-6.057a3.509 3.509 0 0 0-4.648 0l-6.972 6.057a3.442 3.442 0 0 0-1.162 2.603v10.065c0 1.908 1.56 3.455 3.486 3.455H42.92c1.925 0 3.485-1.547 3.485-3.455v-10.077a3.442 3.442 0 0 0-1.162-2.591ZM38.272 140.6h-4.648v-5.758c0-.636.52-1.151 1.162-1.151h2.324c.642 0 1.162.515 1.162 1.151v5.758Zm5.81-1.15c0 .636-.52 1.151-1.162 1.151h-2.324v-5.758c0-1.908-1.56-3.455-3.486-3.455h-2.324c-1.925 0-3.485 1.547-3.485 3.455v5.758h-2.324a1.156 1.156 0 0 1-1.162-1.151v-10.077c0-.331.144-.645.395-.864l6.971-6.045a1.17 1.17 0 0 1 1.534 0l6.972 6.045c.25.219.394.533.395.864v10.077Z" clip-rule="evenodd"/><g clip-path="url(#e)"><rect width="485.968" height="18.625" x="155.776" y="147.338" fill="#EAEBEE" rx="5.854"/><rect width="412.74" height="18.625" x="480.643" y="428.041" fill="#EAEBEE" rx="5.854"/><rect width="412.74" height="18.625" x="480.643" y="353.541" fill="#EAEBEE" rx="5.854"/><rect width="412.74" height="18.625" x="480.643" y="465.29" fill="#EAEBEE" rx="5.854"/><rect width="412.74" height="18.625" x="480.643" y="390.791" fill="#EAEBEE" rx="5.854"/><rect width="412.74" height="18.625" x="480.643" y="316.292" fill="#EAEBEE" rx="5.854"/><rect width="334.578" height="191.57" x="106.514" y="301.658" fill="#DAFFE9" rx="5.854"/><path fill="#9CF4C0" d="M134.708 423.737h45.112v56.344h-45.112zm233.078 9.39h45.112v46.953h-45.112z"/><path fill="#49DF87" d="M309.516 451.908h45.112v28.172h-45.112zm-116.538-54.465h45.112v82.638h-45.112z"/><path fill="#9CF4C0" d="M251.247 333.586h45.112V480.08h-45.112z"/><rect width="236.993" height="135.695" x="656.391" y="136.695" fill="#DCFAF8" rx="5.854"/><path fill="#54D3C7" fill-rule="evenodd" d="M678.359 253.766a5.99 5.99 0 0 0 5.991-5.987 5.99 5.99 0 0 0-5.991-5.987 5.99 5.99 0 0 0-5.992 5.987 5.99 5.99 0 0 0 5.992 5.987Zm35.948-42.572a5.988 5.988 0 0 0 5.991-5.986 5.989 5.989 0 0 0-5.991-5.987 5.989 5.989 0 0 0-5.991 5.987 5.988 5.988 0 0 0 5.991 5.986Zm38.611 22.616a5.99 5.99 0 0 0 5.992-5.986 5.99 5.99 0 0 0-5.992-5.987 5.989 5.989 0 0 0-5.991 5.987 5.988 5.988 0 0 0 5.991 5.986Zm39.943-62.526a5.988 5.988 0 0 0 5.991-5.986 5.989 5.989 0 0 0-5.991-5.987 5.989 5.989 0 0 0-5.991 5.987 5.988 5.988 0 0 0 5.991 5.986Zm37.28 10.643a5.989 5.989 0 0 0 5.991-5.987 5.988 5.988 0 0 0-5.991-5.986 5.99 5.99 0 0 0-5.992 5.986 5.99 5.99 0 0 0 5.992 5.987Zm29.291-22.616a5.989 5.989 0 0 0 5.991-5.987 5.988 5.988 0 0 0-5.991-5.986 5.988 5.988 0 0 0-5.991 5.986 5.989 5.989 0 0 0 5.991 5.987Z" clip-rule="evenodd"/><path stroke="#54D3C7" stroke-linecap="square" stroke-width="1.171" d="m682.353 243.788 27.96-33.259m9.32-2.66 27.96 17.294m9.32-1.33 33.285-53.214"/><path fill="#76DBD2" fill-rule="evenodd" d="m796.855 166.628 27.96 7.982-27.96-7.982Z" clip-rule="evenodd"/><path stroke="#54D3C7" stroke-width="1.171" d="m796.855 166.628 27.96 7.982"/><path fill="#76DBD2" fill-rule="evenodd" d="m834.135 175.94 21.303-18.625-21.303 18.625Z" clip-rule="evenodd"/><path stroke="#54D3C7" stroke-width="1.171" d="m834.135 175.94 21.303-18.625"/><rect width="535.231" height="18.625" x="106.514" y="184.588" fill="#EAEBEE" rx="5.854"/><rect width="535.231" height="18.625" x="106.514" y="221.837" fill="#EAEBEE" rx="5.854"/><rect width="535.231" height="18.625" x="106.514" y="257.757" fill="#EAEBEE" rx="5.854"/><g clip-path="url(#f)"><path fill="#11182B" fill-rule="evenodd" d="M788.051 46.122a6.244 6.244 0 1 0 0 12.487 6.244 6.244 0 0 0 0-12.487Zm0 11.24a4.995 4.995 0 1 1 0-9.99 4.995 4.995 0 0 1 0 9.99Zm0-8.742a.625.625 0 0 0-.625.624v2.76l-1.311.755a.624.624 0 0 0 .312 1.168c.11 0 .217-.027.312-.081l1.624-.937.056-.056.1-.081a.552.552 0 0 0 .062-.1.527.527 0 0 0 .05-.106.387.387 0 0 0 .031-.125l.013-.075v-3.122a.625.625 0 0 0-.624-.624Z" clip-rule="evenodd"/><path fill="#A2A6B1" d="M809.825 50.762a2.068 2.068 0 0 0-.182-.56 1.896 1.896 0 0 0-.392-.56 1.882 1.882 0 0 0-.63-.406 2.194 2.194 0 0 0-.896-.168c-.28 0-.537.042-.77.126-.233.084-.439.2-.616.35a1.583 1.583 0 0 0-.532 1.176c0 .355.107.663.322.924.215.252.532.425.952.518l1.484.322c.831.187 1.465.523 1.904 1.008.448.486.672 1.078.672 1.778 0 .383-.079.752-.238 1.106a2.798 2.798 0 0 1-.686.938c-.299.27-.658.49-1.078.658-.42.159-.896.238-1.428.238-.597 0-1.12-.088-1.568-.266a3.711 3.711 0 0 1-1.12-.686 3.195 3.195 0 0 1-.7-.938 3.576 3.576 0 0 1-.322-1.064l1.316-.42c.028.28.093.55.196.812.112.252.266.476.462.672.205.196.448.355.728.476.289.112.621.168.994.168.681 0 1.19-.154 1.526-.462.345-.308.518-.681.518-1.12 0-.354-.121-.672-.364-.952-.243-.29-.616-.485-1.12-.588l-1.414-.308c-.709-.158-1.293-.462-1.75-.91-.448-.457-.672-1.06-.672-1.806 0-.392.084-.765.252-1.12.168-.354.397-.667.686-.938.299-.27.649-.485 1.05-.644a3.302 3.302 0 0 1 1.288-.252c.56 0 1.036.08 1.428.238a2.976 2.976 0 0 1 1.624 1.386c.149.29.252.57.308.84l-1.232.434Zm2.643 5.432c0-.298.051-.564.154-.798.102-.242.242-.448.42-.616a2.23 2.23 0 0 1 .658-.406c.252-.102.522-.177.812-.224l1.82-.266c.205-.028.34-.088.406-.182a.504.504 0 0 0 .112-.322c0-.326-.117-.606-.35-.84-.224-.242-.593-.364-1.106-.364-.467 0-.826.13-1.078.392a1.583 1.583 0 0 0-.448.966l-1.26-.294a2.37 2.37 0 0 1 .28-.882c.158-.27.359-.5.602-.686a2.58 2.58 0 0 1 .84-.448 3.17 3.17 0 0 1 1.036-.168c.504 0 .933.07 1.288.21.354.13.644.308.868.532.224.224.387.486.49.784.102.299.154.612.154.938v3.374c0 .299.009.537.028.714.018.178.037.308.056.392h-1.288a3.74 3.74 0 0 1-.056-.336 8.636 8.636 0 0 1-.014-.574 2.491 2.491 0 0 1-.294.378c-.122.13-.271.252-.448.364-.178.112-.388.2-.63.266-.234.075-.5.112-.798.112-.346 0-.658-.056-.938-.168a2.394 2.394 0 0 1-.7-.434 2.093 2.093 0 0 1-.462-.644 1.95 1.95 0 0 1-.154-.77Zm2.436.91c.27 0 .522-.032.756-.098a1.64 1.64 0 0 0 .616-.336c.177-.158.317-.364.42-.616.102-.261.154-.574.154-.938v-.308l-2.058.308a1.35 1.35 0 0 0-.7.322c-.187.159-.28.388-.28.686 0 .252.098.48.294.686.196.196.462.294.798.294Zm8.392.896h-1.33l-2.73-6.734h1.484l1.918 5.194 1.932-5.194h1.414L823.296 58Zm8.483-4.06c-.018-.485-.182-.891-.49-1.218-.308-.336-.76-.504-1.358-.504a1.795 1.795 0 0 0-1.316.546c-.149.159-.27.34-.364.546a1.708 1.708 0 0 0-.154.63h3.682Zm1.33 2.142a2.935 2.935 0 0 1-.42.84 2.97 2.97 0 0 1-.658.672 3.173 3.173 0 0 1-.868.448 3.303 3.303 0 0 1-1.078.168c-.448 0-.877-.08-1.288-.238a3.23 3.23 0 0 1-1.092-.7 3.472 3.472 0 0 1-.742-1.134 4.126 4.126 0 0 1-.266-1.526c0-.532.089-1.012.266-1.442.178-.438.411-.812.7-1.12a3.08 3.08 0 0 1 1.036-.728 2.925 2.925 0 0 1 1.218-.266c.514 0 .971.089 1.372.266.411.168.752.406 1.022.714a3.1 3.1 0 0 1 .616 1.12c.15.43.224.906.224 1.428a1.8 1.8 0 0 1-.014.238.907.907 0 0 1-.014.182h-5.068c.01.299.066.574.168.826a2.1 2.1 0 0 0 .42.658c.187.178.402.318.644.42.252.094.518.14.798.14.551 0 .971-.13 1.26-.392.29-.261.5-.583.63-.966l1.134.392Zm2.506-1.47c0 .346.042.668.126.966.093.29.224.542.392.756.168.215.373.383.616.504.243.122.523.182.84.182.299 0 .569-.06.812-.182.243-.13.448-.303.616-.518a2.2 2.2 0 0 0 .378-.77c.093-.298.14-.62.14-.966 0-.7-.173-1.264-.518-1.694-.336-.43-.807-.644-1.414-.644a1.878 1.878 0 0 0-1.456.672 2.242 2.242 0 0 0-.392.742c-.093.29-.14.607-.14.952Zm3.934 2.366c-.159.327-.415.612-.77.854-.345.234-.784.35-1.316.35a3.19 3.19 0 0 1-1.33-.266 3.112 3.112 0 0 1-1.008-.756 3.611 3.611 0 0 1-.63-1.134 4.368 4.368 0 0 1-.224-1.414c0-.476.075-.924.224-1.344.159-.43.378-.802.658-1.12.28-.326.616-.583 1.008-.77a2.87 2.87 0 0 1 1.302-.294c.299 0 .56.033.784.098.233.066.434.154.602.266.168.103.308.224.42.364.112.13.196.266.252.406v-4.354h1.302v8.89a10.051 10.051 0 0 0 .07 1.246h-1.274a3.057 3.057 0 0 1-.056-.35 10.507 10.507 0 0 1-.014-.56v-.112Zm6.593-.784c0-.298.051-.564.154-.798.102-.242.242-.448.42-.616a2.23 2.23 0 0 1 .658-.406c.252-.102.522-.177.812-.224l1.82-.266c.205-.028.34-.088.406-.182a.504.504 0 0 0 .112-.322c0-.326-.117-.606-.35-.84-.224-.242-.593-.364-1.106-.364-.467 0-.826.13-1.078.392a1.583 1.583 0 0 0-.448.966l-1.26-.294a2.37 2.37 0 0 1 .28-.882c.158-.27.359-.5.602-.686a2.58 2.58 0 0 1 .84-.448 3.17 3.17 0 0 1 1.036-.168c.504 0 .933.07 1.288.21.354.13.644.308.868.532.224.224.387.486.49.784.102.299.154.612.154.938v3.374c0 .299.009.537.028.714.018.178.037.308.056.392h-1.288a3.74 3.74 0 0 1-.056-.336 8.636 8.636 0 0 1-.014-.574 2.491 2.491 0 0 1-.294.378c-.122.13-.271.252-.448.364-.178.112-.388.2-.63.266-.234.075-.5.112-.798.112-.346 0-.658-.056-.938-.168a2.394 2.394 0 0 1-.7-.434 2.093 2.093 0 0 1-.462-.644 1.95 1.95 0 0 1-.154-.77Zm2.436.91c.27 0 .522-.032.756-.098a1.64 1.64 0 0 0 .616-.336c.177-.158.317-.364.42-.616.102-.261.154-.574.154-.938v-.308l-2.058.308a1.35 1.35 0 0 0-.7.322c-.187.159-.28.388-.28.686 0 .252.098.48.294.686.196.196.462.294.798.294Zm7.076-5.838h1.456v1.19h-1.456v3.5c0 .308.07.542.21.7.14.15.382.224.728.224.084 0 .177-.004.28-.014.102-.01.182-.023.238-.042v1.12a2.726 2.726 0 0 1-.322.07c-.159.038-.35.056-.574.056-.579 0-1.036-.163-1.372-.49-.336-.336-.504-.812-.504-1.428v-3.696h-1.288v-1.19h.364c.364 0 .625-.098.784-.294.168-.196.252-.443.252-.742v-1.092h1.204v2.128Zm8.14 6.734v-6.398h-2.198v-.966c.635-.018 1.158-.182 1.568-.49a2.01 2.01 0 0 0 .77-1.218h1.204V58h-1.344Zm4.194-2.856c.046.56.256 1.013.63 1.358.373.346.844.518 1.414.518.27 0 .522-.042.756-.126.242-.084.448-.205.616-.364.177-.168.317-.364.42-.588.102-.224.154-.476.154-.756 0-.308-.056-.578-.168-.812a1.541 1.541 0 0 0-.42-.588 1.677 1.677 0 0 0-.63-.35 2.363 2.363 0 0 0-1.666.056 1.97 1.97 0 0 0-.728.476 99.417 99.417 0 0 1-.686-.266 8.958 8.958 0 0 0-.658-.266l1.176-4.508h4.788v1.26h-3.878l-.672 2.604c.205-.224.476-.392.812-.504a3.254 3.254 0 0 1 1.036-.168c.448 0 .858.07 1.232.21.373.14.695.34.966.602.28.252.494.565.644.938.158.374.238.794.238 1.26 0 .43-.08.83-.238 1.204-.159.374-.383.7-.672.98-.29.28-.64.504-1.05.672a3.78 3.78 0 0 1-1.372.238c-.486 0-.929-.074-1.33-.224a3.478 3.478 0 0 1-1.036-.574 3.099 3.099 0 0 1-.7-.868 2.675 2.675 0 0 1-.294-1.022l1.316-.392Zm6.928 1.96c0-.27.093-.5.28-.686a.91.91 0 0 1 .686-.294c.27 0 .499.098.686.294a.91.91 0 0 1 .294.686c0 .27-.098.5-.294.686a.934.934 0 0 1-.686.28.931.931 0 0 1-.686-.28.931.931 0 0 1-.28-.686Zm-.014-4.928c0-.27.093-.5.28-.686a.91.91 0 0 1 .686-.294c.27 0 .499.098.686.294a.91.91 0 0 1 .294.686c0 .27-.098.5-.294.686a.934.934 0 0 1-.686.28.931.931 0 0 1-.686-.28.931.931 0 0 1-.28-.686Zm4.816 2.968c.047.56.257 1.013.63 1.358.374.346.845.518 1.414.518.271 0 .523-.042.756-.126a1.68 1.68 0 0 0 .616-.364 1.789 1.789 0 0 0 .574-1.344c0-.308-.056-.578-.168-.812a1.52 1.52 0 0 0-.42-.588 1.662 1.662 0 0 0-.63-.35 2.37 2.37 0 0 0-1.666.056 1.97 1.97 0 0 0-.728.476l-.686-.266a8.613 8.613 0 0 0-.658-.266l1.176-4.508h4.788v1.26h-3.878l-.672 2.604c.206-.224.476-.392.812-.504a3.258 3.258 0 0 1 1.036-.168c.448 0 .859.07 1.232.21.374.14.696.34.966.602.28.252.495.565.644.938.159.374.238.794.238 1.26 0 .43-.079.83-.238 1.204-.158.374-.382.7-.672.98-.289.28-.639.504-1.05.672a3.77 3.77 0 0 1-1.372.238 3.79 3.79 0 0 1-1.33-.224 3.49 3.49 0 0 1-1.036-.574 3.134 3.134 0 0 1-.7-.868 2.675 2.675 0 0 1-.294-1.022l1.316-.392Zm9.784-2.352c.486-.01.887-.144 1.204-.406.318-.27.476-.63.476-1.078 0-.41-.154-.756-.462-1.036-.298-.28-.704-.42-1.218-.42-.513 0-.924.14-1.232.42-.298.28-.448.626-.448 1.036 0 .448.159.808.476 1.078.318.262.719.397 1.204.406Zm0 4.228c.616 0 1.088-.144 1.414-.434.327-.298.49-.662.49-1.092 0-.438-.168-.807-.504-1.106-.326-.298-.793-.448-1.4-.448-.606 0-1.078.15-1.414.448-.326.299-.49.668-.49 1.106 0 .43.164.794.49 1.092.327.29.798.434 1.414.434Zm0 1.19c-.522 0-.989-.07-1.4-.21a3.054 3.054 0 0 1-1.022-.546 2.4 2.4 0 0 1-.644-.826 2.375 2.375 0 0 1-.224-1.022c0-.56.164-1.031.49-1.414a2.702 2.702 0 0 1 1.232-.826 2.281 2.281 0 0 1-.588-.322 2.495 2.495 0 0 1-.462-.476 2.783 2.783 0 0 1-.322-.616 2.262 2.262 0 0 1-.112-.714c0-.373.075-.714.224-1.022.159-.308.374-.574.644-.798.28-.224.602-.396.966-.518.374-.121.78-.182 1.218-.182.43 0 .831.06 1.204.182.374.122.696.294.966.518.28.224.495.49.644.798.159.308.238.649.238 1.022 0 .495-.144.934-.434 1.316-.28.383-.63.654-1.05.812.486.159.892.434 1.218.826.336.383.504.854.504 1.414a2.36 2.36 0 0 1-.868 1.848 3.03 3.03 0 0 1-1.036.546c-.401.14-.863.21-1.386.21Z"/></g><path fill="#11182B" d="M109.086 112V93.739h11.539v3.374h-7.984v4.507h7.108v3.271h-7.083V112h-3.58Zm22.37-7.778a2.758 2.758 0 0 0-.206-.902 1.89 1.89 0 0 0-.515-.798 2.263 2.263 0 0 0-.876-.567c-.343-.154-.755-.232-1.236-.232-.447 0-.842.078-1.185.232a2.927 2.927 0 0 0-.876.593c-.24.24-.429.506-.566.798a2.71 2.71 0 0 0-.206.876h5.666Zm3.194 4.146a5.29 5.29 0 0 1-.747 1.572c-.326.48-.73.901-1.211 1.262-.48.36-1.047.643-1.7.85-.635.223-1.339.334-2.112.334a7.148 7.148 0 0 1-2.498-.438 6.203 6.203 0 0 1-2.086-1.339 6.522 6.522 0 0 1-1.443-2.138c-.343-.841-.515-1.794-.515-2.859 0-1.013.172-1.931.515-2.755.344-.825.799-1.52 1.366-2.087a6.06 6.06 0 0 1 2.009-1.339 5.85 5.85 0 0 1 2.343-.49c1.975 0 3.512.584 4.611 1.752 1.099 1.168 1.648 2.773 1.648 4.816 0 .241-.009.473-.026.696a7.499 7.499 0 0 0-.025.36h-9.067c.018.413.112.799.284 1.159.189.344.42.644.695.902.292.258.627.464 1.005.618.377.137.781.206 1.21.206.807 0 1.434-.18 1.88-.541.464-.36.799-.824 1.005-1.391l2.859.85Zm2.878 3.632V93.353h3.374v7.366c.292-.447.764-.841 1.416-1.185.67-.36 1.477-.54 2.421-.54.928 0 1.752.17 2.473.514a5.05 5.05 0 0 1 1.829 1.391 5.76 5.76 0 0 1 1.159 2.086c.257.807.386 1.683.386 2.627 0 .962-.146 1.855-.438 2.679a6.129 6.129 0 0 1-1.21 2.112 5.51 5.51 0 0 1-1.881 1.417c-.738.326-1.554.489-2.446.489-.876 0-1.64-.172-2.293-.515-.635-.343-1.124-.79-1.468-1.339V112h-3.322Zm9.632-6.362c0-1.167-.309-2.052-.927-2.653-.601-.618-1.339-.927-2.215-.927-.429 0-.841.077-1.236.232a2.854 2.854 0 0 0-1.005.695 3.343 3.343 0 0 0-.669 1.108c-.172.446-.258.961-.258 1.545 0 .567.086 1.073.258 1.52.171.446.395.824.669 1.133.292.309.627.55 1.005.721.395.155.807.232 1.236.232.876 0 1.614-.309 2.215-.927.618-.618.927-1.511.927-2.679Zm13.865-2.91a5.215 5.215 0 0 0-1.03-.103c-.447 0-.867.06-1.262.18s-.739.318-1.031.592c-.291.275-.532.644-.721 1.108-.171.446-.257 1.013-.257 1.7V112h-3.426V99.328h3.323v1.88c.189-.412.429-.747.721-1.004.309-.275.627-.481.953-.618a4.665 4.665 0 0 1 1.004-.284c.344-.051.653-.077.928-.077.137 0 .266.009.386.026.137 0 .275.008.412.025v3.452ZM171.653 112a3.581 3.581 0 0 1-.078-.592 11.76 11.76 0 0 1-.025-.773 3.006 3.006 0 0 1-1.52 1.313 5.353 5.353 0 0 1-1.983.387c-.773 0-1.46-.129-2.061-.387a4.775 4.775 0 0 1-1.494-1.081 4.722 4.722 0 0 1-.953-1.571 6.157 6.157 0 0 1-.309-1.958v-8.01h3.426v7.315c0 .721.18 1.33.541 1.828.378.481.97.722 1.777.722.773 0 1.365-.232 1.777-.696.412-.463.618-1.064.618-1.803v-7.366h3.426v10.38c0 .498.008.953.026 1.365.034.395.068.704.103.927h-3.271Zm6.025-3.451c0-.567.094-1.065.283-1.494.206-.447.481-.833.824-1.159a3.946 3.946 0 0 1 1.185-.773 6.84 6.84 0 0 1 1.494-.412l3.117-.464c.36-.051.609-.154.747-.309a.922.922 0 0 0 .206-.592c0-.446-.181-.833-.541-1.159-.344-.326-.876-.489-1.597-.489-.756 0-1.34.206-1.752.618a2.347 2.347 0 0 0-.669 1.442l-3.039-.644c.051-.498.206-.996.463-1.494.258-.498.61-.944 1.056-1.339.447-.395.996-.713 1.649-.953.652-.258 1.408-.386 2.266-.386.996 0 1.846.137 2.55.412.704.257 1.271.61 1.7 1.056.446.429.764.936.953 1.519a5.46 5.46 0 0 1 .309 1.829v6.233c0 .343.017.713.051 1.108.035.377.069.678.103.901h-3.142a9.286 9.286 0 0 1-.103-.695 15.237 15.237 0 0 1-.026-.825c-.326.498-.798.936-1.416 1.314-.601.378-1.374.567-2.318.567-.67 0-1.279-.112-1.829-.335a4.338 4.338 0 0 1-1.365-.824 3.97 3.97 0 0 1-.876-1.211 3.785 3.785 0 0 1-.283-1.442Zm5.074 1.262c.36 0 .704-.043 1.03-.129.344-.103.644-.266.902-.489.257-.241.463-.541.618-.902.154-.378.232-.85.232-1.416v-.567l-2.859.438a2.268 2.268 0 0 0-1.134.489c-.292.241-.437.61-.437 1.108 0 .377.137.721.412 1.03.274.292.686.438 1.236.438Zm17.31-7.083a5.225 5.225 0 0 0-1.031-.103c-.446 0-.867.06-1.262.18a2.58 2.58 0 0 0-1.03.592c-.292.275-.532.644-.721 1.108-.172.446-.258 1.013-.258 1.7V112h-3.425V99.328h3.322v1.88c.189-.412.43-.747.721-1.004a3.48 3.48 0 0 1 .953-.618 4.689 4.689 0 0 1 1.005-.284c.343-.051.652-.077.927-.077.138 0 .266.009.387.026.137 0 .274.008.412.025v3.452Zm3.081 14.269 2.987-6.594-5.383-11.075h3.838l3.374 7.418 3.117-7.418h3.657l-7.959 17.669h-3.631Zm29.378-17.927a3.611 3.611 0 0 0-.283-.824 2.453 2.453 0 0 0-.567-.85 3.061 3.061 0 0 0-1.004-.644c-.395-.171-.885-.257-1.468-.257-.43 0-.825.069-1.185.206-.344.12-.644.292-.902.515-.24.206-.429.446-.566.721a1.924 1.924 0 0 0-.206.876c0 .498.163.936.489 1.313.326.361.824.61 1.494.747l2.55.49c.824.154 1.554.403 2.189.747a5.819 5.819 0 0 1 1.597 1.236c.429.464.755.987.979 1.571a5.08 5.08 0 0 1 .334 1.829c0 .704-.146 1.399-.437 2.086a5.454 5.454 0 0 1-1.288 1.803c-.55.515-1.237.936-2.061 1.262-.807.326-1.743.489-2.807.489-1.219 0-2.267-.171-3.142-.515-.876-.36-1.614-.815-2.215-1.365a5.894 5.894 0 0 1-1.34-1.829 6.545 6.545 0 0 1-.566-2.009l3.296-.875c.035.446.138.875.31 1.288.188.412.446.781.772 1.107.326.309.73.558 1.211.747.481.189 1.047.283 1.7.283.961 0 1.691-.206 2.189-.618.515-.429.773-.97.773-1.622 0-.533-.189-.988-.567-1.366-.378-.394-.927-.661-1.648-.798l-2.55-.515c-1.46-.292-2.627-.884-3.503-1.777-.859-.91-1.288-2.061-1.288-3.452 0-.807.163-1.553.489-2.24a5.82 5.82 0 0 1 1.391-1.83 6.532 6.532 0 0 1 2.035-1.21 6.866 6.866 0 0 1 2.447-.438c1.099 0 2.035.154 2.807.463.79.292 1.443.67 1.958 1.133.515.464.91.98 1.185 1.546.291.55.489 1.082.592 1.597l-3.194.978Zm5.422 9.479c0-.567.095-1.065.284-1.494.206-.447.48-.833.824-1.159a3.929 3.929 0 0 1 1.184-.773 6.84 6.84 0 0 1 1.494-.412l3.117-.464c.36-.051.609-.154.747-.309a.922.922 0 0 0 .206-.592c0-.446-.18-.833-.541-1.159-.343-.326-.876-.489-1.597-.489-.755 0-1.339.206-1.751.618a2.349 2.349 0 0 0-.67 1.442l-3.039-.644c.051-.498.206-.996.463-1.494.258-.498.61-.944 1.056-1.339.447-.395.996-.713 1.649-.953.652-.258 1.408-.386 2.266-.386.996 0 1.846.137 2.55.412.704.257 1.271.61 1.7 1.056.446.429.764.936.953 1.519a5.46 5.46 0 0 1 .309 1.829v6.233c0 .343.017.713.052 1.108.034.377.068.678.103.901h-3.143a9.844 9.844 0 0 1-.103-.695 15.151 15.151 0 0 1-.025-.825c-.327.498-.799.936-1.417 1.314-.601.378-1.374.567-2.318.567-.67 0-1.279-.112-1.829-.335a4.338 4.338 0 0 1-1.365-.824 3.967 3.967 0 0 1-.875-1.211 3.786 3.786 0 0 1-.284-1.442Zm5.074 1.262a4.02 4.02 0 0 0 1.03-.129c.344-.103.644-.266.902-.489.257-.241.463-.541.618-.902.155-.378.232-.85.232-1.416v-.567l-2.859.438a2.265 2.265 0 0 0-1.133.489c-.292.241-.438.61-.438 1.108 0 .377.137.721.412 1.03.275.292.687.438 1.236.438ZM252.6 112V93.353h3.426V112H252.6Zm15.258-7.778a2.758 2.758 0 0 0-.206-.902 1.89 1.89 0 0 0-.515-.798 2.278 2.278 0 0 0-.876-.567c-.344-.154-.756-.232-1.236-.232-.447 0-.842.078-1.185.232a2.902 2.902 0 0 0-.876.593 2.84 2.84 0 0 0-.567.798c-.12.292-.188.584-.206.876h5.667Zm3.193 4.146a5.263 5.263 0 0 1-.746 1.572c-.327.48-.73.901-1.211 1.262a5.667 5.667 0 0 1-1.7.85c-.635.223-1.339.334-2.112.334a7.144 7.144 0 0 1-2.498-.438 6.194 6.194 0 0 1-2.086-1.339 6.522 6.522 0 0 1-1.443-2.138c-.343-.841-.515-1.794-.515-2.859 0-1.013.172-1.931.515-2.755.344-.825.799-1.52 1.365-2.087a6.08 6.08 0 0 1 2.009-1.339 5.858 5.858 0 0 1 2.344-.49c1.975 0 3.511.584 4.61 1.752 1.099 1.168 1.649 2.773 1.649 4.816 0 .241-.009.473-.026.696a8.286 8.286 0 0 0-.026.36h-9.066c.017.413.112.799.283 1.159.189.344.421.644.696.902.292.258.627.464 1.004.618.378.137.782.206 1.211.206.807 0 1.434-.18 1.88-.541a3.04 3.04 0 0 0 1.005-1.391l2.858.85Zm14.934-3.399h-1.854V112h-3.581V93.739h7.135c.893 0 1.691.146 2.395.438a5.432 5.432 0 0 1 1.829 1.185 5.05 5.05 0 0 1 1.185 1.777c.274.687.412 1.425.412 2.215 0 1.288-.352 2.386-1.056 3.297-.687.91-1.631 1.536-2.833 1.88l3.914 7.469h-3.966l-3.58-7.031Zm1.03-3.065c.91 0 1.614-.232 2.112-.696.498-.463.747-1.073.747-1.829 0-.772-.249-1.39-.747-1.854-.498-.464-1.202-.695-2.112-.695h-2.884v5.074h2.884Zm17.54 2.318a2.758 2.758 0 0 0-.206-.902 1.89 1.89 0 0 0-.515-.798 2.263 2.263 0 0 0-.876-.567c-.343-.154-.755-.232-1.236-.232a2.87 2.87 0 0 0-1.185.232 2.927 2.927 0 0 0-.876.593c-.24.24-.429.506-.566.798a2.71 2.71 0 0 0-.206.876h5.666Zm3.194 4.146a5.29 5.29 0 0 1-.747 1.572c-.326.48-.73.901-1.211 1.262-.48.36-1.047.643-1.7.85-.635.223-1.339.334-2.112.334a7.148 7.148 0 0 1-2.498-.438 6.203 6.203 0 0 1-2.086-1.339 6.504 6.504 0 0 1-1.442-2.138c-.344-.841-.516-1.794-.516-2.859 0-1.013.172-1.931.516-2.755.343-.825.798-1.52 1.365-2.087a6.06 6.06 0 0 1 2.009-1.339 5.85 5.85 0 0 1 2.343-.49c1.975 0 3.512.584 4.611 1.752 1.099 1.168 1.648 2.773 1.648 4.816 0 .241-.008.473-.026.696a7.499 7.499 0 0 0-.025.36h-9.067c.018.413.112.799.284 1.159.189.344.42.644.695.902.292.258.627.464 1.005.618.377.137.781.206 1.21.206.807 0 1.434-.18 1.88-.541.464-.36.799-.824 1.005-1.391l2.859.85Zm2.878 8.526V99.328h3.322v1.545c.292-.498.773-.927 1.443-1.287.669-.361 1.485-.541 2.446-.541.928 0 1.752.171 2.473.515a5.04 5.04 0 0 1 1.829 1.391 5.753 5.753 0 0 1 1.159 2.086c.257.79.386 1.657.386 2.601 0 .962-.146 1.855-.438 2.679a6.129 6.129 0 0 1-1.21 2.112 5.654 5.654 0 0 1-1.881 1.391c-.738.326-1.553.489-2.446.489-.876 0-1.632-.146-2.267-.438-.618-.309-1.082-.678-1.391-1.107v6.13h-3.425Zm9.684-11.23c0-1.133-.309-2.009-.927-2.627-.601-.618-1.34-.927-2.215-.927-.447 0-.859.086-1.237.257a2.875 2.875 0 0 0-1.004.696 3.12 3.12 0 0 0-.695 1.107c-.155.429-.232.927-.232 1.494s.077 1.073.232 1.52c.171.429.403.798.695 1.107.292.309.627.55 1.004.721.378.155.79.232 1.237.232.875 0 1.614-.309 2.215-.927.618-.635.927-1.52.927-2.653Zm11.778 3.606a3.29 3.29 0 0 0 1.211-.232 2.96 2.96 0 0 0 1.03-.67c.292-.309.524-.686.696-1.133.188-.446.283-.97.283-1.571s-.095-1.125-.283-1.571a3.13 3.13 0 0 0-.696-1.108 2.8 2.8 0 0 0-1.03-.695 3.29 3.29 0 0 0-2.421 0 2.8 2.8 0 0 0-1.03.695 3.437 3.437 0 0 0-.722 1.108c-.171.446-.257.97-.257 1.571s.086 1.125.257 1.571c.189.447.43.824.722 1.133a2.96 2.96 0 0 0 1.03.67c.395.155.798.232 1.21.232Zm0-10.328c.945 0 1.82.171 2.628.515a5.96 5.96 0 0 1 2.112 1.391 5.954 5.954 0 0 1 1.39 2.112c.344.824.515 1.725.515 2.704 0 .979-.171 1.88-.515 2.704a6.292 6.292 0 0 1-1.39 2.112 6.26 6.26 0 0 1-2.112 1.417 6.954 6.954 0 0 1-2.628.489 7.143 7.143 0 0 1-2.652-.489 6.593 6.593 0 0 1-2.112-1.417 6.835 6.835 0 0 1-1.391-2.112c-.327-.824-.49-1.725-.49-2.704 0-.979.163-1.88.49-2.704a6.435 6.435 0 0 1 1.391-2.112 6.264 6.264 0 0 1 2.112-1.391 6.824 6.824 0 0 1 2.652-.515Zm17.076 3.786a5.215 5.215 0 0 0-1.03-.103c-.446 0-.867.06-1.262.18a2.58 2.58 0 0 0-1.03.592c-.292.275-.533.644-.721 1.108-.172.446-.258 1.013-.258 1.7V112h-3.426V99.328h3.323v1.88c.189-.412.429-.747.721-1.004.309-.275.627-.481.953-.618a4.672 4.672 0 0 1 1.005-.284c.343-.051.652-.077.927-.077.137 0 .266.009.386.026a3.3 3.3 0 0 1 .412.025v3.452Zm6.558-3.4h2.55v3.039h-2.55v5.306c0 .549.121.936.361 1.159.258.206.635.309 1.133.309.206 0 .412-.009.618-.026.206-.017.352-.043.438-.077v2.833a3.79 3.79 0 0 1-.721.206c-.309.069-.712.103-1.21.103-1.237 0-2.215-.343-2.937-1.03-.721-.687-1.081-1.648-1.081-2.885v-5.898h-2.293v-3.039h.644c.67 0 1.159-.189 1.468-.567.327-.395.49-.875.49-1.442v-1.777h3.09v3.786Z"/><path fill="#A2A6B1" d="M113.211 48.762a2.034 2.034 0 0 0-.182-.56 1.896 1.896 0 0 0-.392-.56 1.882 1.882 0 0 0-.63-.406 2.19 2.19 0 0 0-.896-.168c-.28 0-.536.042-.77.126-.233.084-.438.2-.616.35a1.586 1.586 0 0 0-.532 1.176c0 .355.108.663.322.924.215.252.532.425.952.518l1.484.322c.831.187 1.466.523 1.904 1.008.448.485.672 1.078.672 1.778 0 .383-.079.751-.238 1.106a2.785 2.785 0 0 1-.686.938c-.298.27-.658.49-1.078.658-.42.159-.896.238-1.428.238-.597 0-1.12-.089-1.568-.266a3.724 3.724 0 0 1-1.12-.686 3.214 3.214 0 0 1-.7-.938 3.577 3.577 0 0 1-.322-1.064l1.316-.42c.028.28.094.55.196.812.112.252.266.476.462.672.206.196.448.355.728.476.29.112.621.168.994.168.682 0 1.19-.154 1.526-.462.346-.308.518-.681.518-1.12 0-.355-.121-.672-.364-.952-.242-.29-.616-.485-1.12-.588l-1.414-.308c-.709-.159-1.292-.462-1.75-.91-.448-.457-.672-1.06-.672-1.806 0-.392.084-.765.252-1.12.168-.355.397-.667.686-.938.299-.27.649-.485 1.05-.644a3.305 3.305 0 0 1 1.288-.252c.56 0 1.036.08 1.428.238.402.15.733.345.994.588.271.243.481.509.63.798.15.29.252.57.308.84l-1.232.434Zm2.643 5.432c0-.299.052-.565.154-.798a1.81 1.81 0 0 1 .42-.616c.187-.168.406-.303.658-.406.252-.103.523-.177.812-.224l1.82-.266c.206-.028.341-.089.406-.182a.5.5 0 0 0 .112-.322c0-.327-.116-.607-.35-.84-.224-.243-.592-.364-1.106-.364-.466 0-.826.13-1.078.392a1.588 1.588 0 0 0-.448.966l-1.26-.294c.038-.317.131-.611.28-.882.159-.27.36-.5.602-.686a2.6 2.6 0 0 1 .84-.448 3.174 3.174 0 0 1 1.036-.168c.504 0 .934.07 1.288.21.355.13.644.308.868.532.224.224.388.485.49.784.103.299.154.611.154.938v3.374c0 .299.01.537.028.714.019.177.038.308.056.392h-1.288a4.637 4.637 0 0 1-.056-.336 9.386 9.386 0 0 1-.014-.574 2.378 2.378 0 0 1-.294.378 2.23 2.23 0 0 1-1.078.63 2.612 2.612 0 0 1-.798.112c-.345 0-.658-.056-.938-.168a2.41 2.41 0 0 1-.7-.434 2.094 2.094 0 0 1-.462-.644 1.968 1.968 0 0 1-.154-.77Zm2.436.91c.271 0 .523-.033.756-.098.243-.075.448-.187.616-.336.178-.159.318-.364.42-.616.103-.261.154-.574.154-.938v-.308l-2.058.308c-.28.047-.513.154-.7.322-.186.159-.28.387-.28.686 0 .252.098.48.294.686.196.196.462.294.798.294Zm5.312.896V45.864h1.316V56h-1.316Zm8.091-4.06c-.019-.485-.182-.891-.49-1.218-.308-.336-.761-.504-1.358-.504a1.794 1.794 0 0 0-1.316.546c-.149.159-.271.34-.364.546a1.688 1.688 0 0 0-.154.63h3.682Zm1.33 2.142a2.935 2.935 0 0 1-.42.84 2.99 2.99 0 0 1-1.526 1.12 3.307 3.307 0 0 1-1.078.168c-.448 0-.877-.08-1.288-.238a3.212 3.212 0 0 1-1.092-.7 3.472 3.472 0 0 1-.742-1.134 4.126 4.126 0 0 1-.266-1.526c0-.532.089-1.013.266-1.442.177-.439.411-.812.7-1.12a3.08 3.08 0 0 1 1.036-.728 2.925 2.925 0 0 1 1.218-.266c.513 0 .971.089 1.372.266.411.168.751.406 1.022.714.271.308.476.681.616 1.12.149.43.224.905.224 1.428 0 .084-.005.163-.014.238a.988.988 0 0 1-.014.182h-5.068c.009.299.065.574.168.826a2.1 2.1 0 0 0 .42.658c.187.177.401.317.644.42.252.093.518.14.798.14.551 0 .971-.13 1.26-.392.289-.261.499-.583.63-.966l1.134.392Zm2.282-.252c.047.355.201.653.462.896s.63.364 1.106.364c.373 0 .658-.089.854-.266a.823.823 0 0 0 .294-.63.744.744 0 0 0-.224-.546c-.149-.15-.364-.257-.644-.322l-1.148-.252c-.532-.112-.947-.336-1.246-.672a1.805 1.805 0 0 1-.434-1.218c0-.29.061-.56.182-.812a2.335 2.335 0 0 1 1.274-1.148 2.65 2.65 0 0 1 .938-.168c.457 0 .84.065 1.148.196.317.13.574.294.77.49.196.187.341.383.434.588.103.205.173.383.21.532l-1.162.434a2.826 2.826 0 0 0-.098-.322 1.07 1.07 0 0 0-.224-.364 1.235 1.235 0 0 0-.42-.308 1.532 1.532 0 0 0-.658-.126c-.336 0-.607.093-.812.28-.205.177-.308.383-.308.616 0 .43.257.7.77.812l1.092.238c.616.13 1.078.373 1.386.728.317.345.476.77.476 1.274 0 .243-.051.485-.154.728a2.125 2.125 0 0 1-.462.672 2.08 2.08 0 0 1-.756.49c-.308.13-.672.196-1.092.196-.467 0-.868-.065-1.204-.196a2.843 2.843 0 0 1-.826-.49 2.401 2.401 0 0 1-.504-.63 2.242 2.242 0 0 1-.21-.644l1.19-.42Zm9.424 2.17h-1.274l4.802-9.926h1.274L144.729 56Zm9.556 0v-9.926h6.034v1.274h-4.662v3.192h4.228v1.288h-4.228V56h-1.372Zm12.107-4.06c-.018-.485-.182-.891-.49-1.218-.308-.336-.76-.504-1.358-.504a1.794 1.794 0 0 0-1.316.546c-.149.159-.27.34-.364.546a1.707 1.707 0 0 0-.154.63h3.682Zm1.33 2.142a2.935 2.935 0 0 1-.42.84 2.97 2.97 0 0 1-.658.672 3.173 3.173 0 0 1-.868.448 3.303 3.303 0 0 1-1.078.168c-.448 0-.877-.08-1.288-.238a3.231 3.231 0 0 1-1.092-.7 3.472 3.472 0 0 1-.742-1.134 4.126 4.126 0 0 1-.266-1.526c0-.532.089-1.013.266-1.442.178-.439.411-.812.7-1.12a3.08 3.08 0 0 1 1.036-.728 2.925 2.925 0 0 1 1.218-.266c.514 0 .971.089 1.372.266.411.168.752.406 1.022.714.271.308.476.681.616 1.12.15.43.224.905.224 1.428a1.8 1.8 0 0 1-.014.238.907.907 0 0 1-.014.182h-5.068c.01.299.066.574.168.826a2.1 2.1 0 0 0 .42.658c.187.177.402.317.644.42.252.093.518.14.798.14.551 0 .971-.13 1.26-.392.29-.261.5-.583.63-.966l1.134.392Zm1.722 4.578v-9.394h1.274v1.05c.187-.336.472-.62.854-.854.383-.233.85-.35 1.4-.35.504 0 .948.093 1.33.28.392.177.714.425.966.742.262.317.458.69.588 1.12.14.43.21.887.21 1.372 0 .504-.07.97-.21 1.4a3.41 3.41 0 0 1-.616 1.134c-.27.317-.602.57-.994.756a3.094 3.094 0 0 1-1.316.266c-.522 0-.97-.107-1.344-.322-.373-.215-.653-.471-.84-.77v3.57h-1.302Zm5.278-6.034c0-.336-.046-.644-.14-.924a2.241 2.241 0 0 0-.392-.742 1.82 1.82 0 0 0-1.456-.686c-.298 0-.574.06-.826.182-.242.121-.452.29-.63.504a2.127 2.127 0 0 0-.406.742c-.093.28-.14.588-.14.924 0 .345.047.667.14.966.094.29.229.541.406.756.178.205.388.369.63.49.252.112.528.168.826.168.308 0 .584-.056.826-.168.243-.121.448-.285.616-.49.178-.215.313-.467.406-.756a3.2 3.2 0 0 0 .14-.966Zm6.759-2.03a4.053 4.053 0 0 0-.574-.042c-.551 0-.999.163-1.344.49-.336.317-.504.845-.504 1.582V56h-1.316v-6.734h1.288v1.176c.121-.261.261-.471.42-.63.168-.168.341-.299.518-.392.177-.103.359-.173.546-.21a2.72 2.72 0 0 1 .532-.056 2.061 2.061 0 0 1 .434.042v1.4Zm5.841 4.592a1.72 1.72 0 0 1-.84.784 2.91 2.91 0 0 1-1.148.238c-.392 0-.747-.07-1.064-.21a2.3 2.3 0 0 1-.784-.574 2.673 2.673 0 0 1-.504-.854 3.26 3.26 0 0 1-.168-1.064v-4.242h1.316v4.046c0 .233.028.457.084.672.056.205.144.387.266.546.121.159.275.285.462.378.196.093.434.14.714.14.532 0 .928-.159 1.19-.476.27-.317.406-.733.406-1.246v-4.06h1.316v5.488c0 .27.004.518.014.742.018.215.037.383.056.504h-1.26a2.018 2.018 0 0 1-.042-.35 7.77 7.77 0 0 1-.014-.462Zm3.071-.994c0-.299.052-.565.154-.798a1.81 1.81 0 0 1 .42-.616c.187-.168.406-.303.658-.406.252-.103.523-.177.812-.224l1.82-.266c.206-.028.341-.089.406-.182a.5.5 0 0 0 .112-.322c0-.327-.116-.607-.35-.84-.224-.243-.592-.364-1.106-.364-.466 0-.826.13-1.078.392a1.588 1.588 0 0 0-.448.966l-1.26-.294c.038-.317.131-.611.28-.882.159-.27.36-.5.602-.686a2.6 2.6 0 0 1 .84-.448 3.174 3.174 0 0 1 1.036-.168c.504 0 .934.07 1.288.21.355.13.644.308.868.532.224.224.388.485.49.784.103.299.154.611.154.938v3.374c0 .299.01.537.028.714.019.177.038.308.056.392h-1.288a4.637 4.637 0 0 1-.056-.336 9.386 9.386 0 0 1-.014-.574 2.378 2.378 0 0 1-.294.378 2.23 2.23 0 0 1-1.078.63 2.612 2.612 0 0 1-.798.112c-.345 0-.658-.056-.938-.168a2.41 2.41 0 0 1-.7-.434 2.094 2.094 0 0 1-.462-.644 1.968 1.968 0 0 1-.154-.77Zm2.436.91c.271 0 .523-.033.756-.098.243-.075.448-.187.616-.336.178-.159.318-.364.42-.616.103-.261.154-.574.154-.938v-.308l-2.058.308c-.28.047-.513.154-.7.322-.186.159-.28.387-.28.686 0 .252.098.48.294.686.196.196.462.294.798.294Zm9.05-4.508a4.053 4.053 0 0 0-.574-.042c-.55 0-.998.163-1.344.49-.336.317-.504.845-.504 1.582V56h-1.316v-6.734h1.288v1.176c.122-.261.262-.471.42-.63.168-.168.341-.299.518-.392a1.78 1.78 0 0 1 .546-.21 2.72 2.72 0 0 1 .532-.056 2.038 2.038 0 0 1 .434.042v1.4Zm1.641 8.218 1.68-3.556-2.898-5.992h1.512l2.1 4.648 2.016-4.648h1.414l-4.382 9.548h-1.442Zm15.826-10.052a2.034 2.034 0 0 0-.182-.56 1.896 1.896 0 0 0-.392-.56 1.882 1.882 0 0 0-.63-.406 2.19 2.19 0 0 0-.896-.168c-.28 0-.536.042-.77.126-.233.084-.438.2-.616.35a1.586 1.586 0 0 0-.532 1.176c0 .355.108.663.322.924.215.252.532.425.952.518l1.484.322c.831.187 1.466.523 1.904 1.008.448.485.672 1.078.672 1.778 0 .383-.079.751-.238 1.106a2.785 2.785 0 0 1-.686.938c-.298.27-.658.49-1.078.658-.42.159-.896.238-1.428.238-.597 0-1.12-.089-1.568-.266a3.724 3.724 0 0 1-1.12-.686 3.214 3.214 0 0 1-.7-.938 3.577 3.577 0 0 1-.322-1.064l1.316-.42c.028.28.094.55.196.812.112.252.266.476.462.672.206.196.448.355.728.476.29.112.621.168.994.168.682 0 1.19-.154 1.526-.462.346-.308.518-.681.518-1.12 0-.355-.121-.672-.364-.952-.242-.29-.616-.485-1.12-.588l-1.414-.308c-.709-.159-1.292-.462-1.75-.91-.448-.457-.672-1.06-.672-1.806 0-.392.084-.765.252-1.12.168-.355.397-.667.686-.938.299-.27.649-.485 1.05-.644a3.305 3.305 0 0 1 1.288-.252c.56 0 1.036.08 1.428.238.402.15.733.345.994.588.271.243.481.509.63.798.15.29.252.57.308.84l-1.232.434Zm2.643 5.432c0-.299.051-.565.154-.798a1.81 1.81 0 0 1 .42-.616c.187-.168.406-.303.658-.406.252-.103.523-.177.812-.224l1.82-.266c.205-.028.341-.089.406-.182a.5.5 0 0 0 .112-.322c0-.327-.117-.607-.35-.84-.224-.243-.593-.364-1.106-.364-.467 0-.826.13-1.078.392a1.588 1.588 0 0 0-.448.966l-1.26-.294c.037-.317.131-.611.28-.882.159-.27.359-.5.602-.686a2.6 2.6 0 0 1 .84-.448 3.174 3.174 0 0 1 1.036-.168c.504 0 .933.07 1.288.21.355.13.644.308.868.532.224.224.387.485.49.784.103.299.154.611.154.938v3.374c0 .299.009.537.028.714.019.177.037.308.056.392h-1.288a4.14 4.14 0 0 1-.056-.336 9.386 9.386 0 0 1-.014-.574 2.501 2.501 0 0 1-.294.378 2.235 2.235 0 0 1-1.078.63 2.612 2.612 0 0 1-.798.112c-.345 0-.658-.056-.938-.168a2.396 2.396 0 0 1-.7-.434 2.094 2.094 0 0 1-.462-.644 1.95 1.95 0 0 1-.154-.77Zm2.436.91c.271 0 .523-.033.756-.098.243-.075.448-.187.616-.336.177-.159.317-.364.42-.616.103-.261.154-.574.154-.938v-.308l-2.058.308c-.28.047-.513.154-.7.322-.187.159-.28.387-.28.686 0 .252.098.48.294.686.196.196.462.294.798.294Zm5.312.896V45.864h1.316V56h-1.316Zm8.091-4.06c-.019-.485-.182-.891-.49-1.218-.308-.336-.761-.504-1.358-.504a1.794 1.794 0 0 0-1.316.546c-.149.159-.271.34-.364.546a1.688 1.688 0 0 0-.154.63h3.682Zm1.33 2.142a2.935 2.935 0 0 1-.42.84 2.99 2.99 0 0 1-1.526 1.12 3.307 3.307 0 0 1-1.078.168c-.448 0-.877-.08-1.288-.238a3.212 3.212 0 0 1-1.092-.7 3.472 3.472 0 0 1-.742-1.134 4.126 4.126 0 0 1-.266-1.526c0-.532.089-1.013.266-1.442.177-.439.411-.812.7-1.12a3.08 3.08 0 0 1 1.036-.728 2.925 2.925 0 0 1 1.218-.266c.513 0 .971.089 1.372.266.411.168.751.406 1.022.714.271.308.476.681.616 1.12.149.43.224.905.224 1.428 0 .084-.005.163-.014.238a.988.988 0 0 1-.014.182h-5.068c.009.299.065.574.168.826a2.1 2.1 0 0 0 .42.658c.187.177.401.317.644.42.252.093.518.14.798.14.551 0 .971-.13 1.26-.392.289-.261.499-.583.63-.966l1.134.392Zm8.232-2.142h-1.484V56h-1.386v-9.926h3.738c.466 0 .886.08 1.26.238a2.7 2.7 0 0 1 1.568 1.568c.14.355.21.737.21 1.148 0 .719-.215 1.335-.644 1.848-.42.504-1.008.826-1.764.966L251.254 56h-1.596l-2.268-4.06Zm.616-1.232c.56 0 1.012-.15 1.358-.448.345-.308.518-.719.518-1.232 0-.532-.173-.952-.518-1.26-.346-.308-.798-.462-1.358-.462h-2.1v3.402h2.1Zm9.578 1.232c-.019-.485-.182-.891-.49-1.218-.308-.336-.761-.504-1.358-.504a1.794 1.794 0 0 0-1.316.546c-.15.159-.271.34-.364.546a1.669 1.669 0 0 0-.154.63h3.682Zm1.33 2.142a3.012 3.012 0 0 1-1.946 1.96 3.307 3.307 0 0 1-1.078.168 3.54 3.54 0 0 1-1.288-.238 3.212 3.212 0 0 1-1.092-.7 3.456 3.456 0 0 1-.742-1.134c-.178-.448-.266-.957-.266-1.526 0-.532.088-1.013.266-1.442a3.55 3.55 0 0 1 .7-1.12 3.07 3.07 0 0 1 1.036-.728 2.925 2.925 0 0 1 1.218-.266c.513 0 .97.089 1.372.266a2.7 2.7 0 0 1 1.022.714c.27.308.476.681.616 1.12.149.43.224.905.224 1.428 0 .084-.005.163-.014.238a.988.988 0 0 1-.014.182h-5.068c.009.299.065.574.168.826.102.252.242.471.42.658.186.177.401.317.644.42.252.093.518.14.798.14.55 0 .97-.13 1.26-.392.289-.261.499-.583.63-.966l1.134.392Zm1.722 4.578v-9.394h1.274v1.05c.186-.336.471-.62.854-.854.382-.233.849-.35 1.4-.35.504 0 .947.093 1.33.28.392.177.714.425.966.742.261.317.457.69.588 1.12.14.43.21.887.21 1.372 0 .504-.07.97-.21 1.4-.14.43-.346.807-.616 1.134-.271.317-.602.57-.994.756a3.1 3.1 0 0 1-1.316.266c-.523 0-.971-.107-1.344-.322-.374-.215-.654-.471-.84-.77v3.57h-1.302Zm5.278-6.034c0-.336-.047-.644-.14-.924a2.26 2.26 0 0 0-.392-.742 1.823 1.823 0 0 0-1.456-.686c-.299 0-.574.06-.826.182-.243.121-.453.29-.63.504a2.095 2.095 0 0 0-.406.742c-.094.28-.14.588-.14.924 0 .345.046.667.14.966.093.29.228.541.406.756.177.205.387.369.63.49.252.112.527.168.826.168.308 0 .583-.056.826-.168.242-.121.448-.285.616-.49a2.29 2.29 0 0 0 .406-.756c.093-.299.14-.62.14-.966Zm5.904 2.408c.28 0 .546-.051.798-.154.252-.103.476-.257.672-.462.196-.205.35-.457.462-.756.112-.299.168-.644.168-1.036s-.056-.733-.168-1.022a2.194 2.194 0 0 0-.462-.756 1.928 1.928 0 0 0-.672-.462 2.094 2.094 0 0 0-.798-.154c-.28 0-.546.051-.798.154a1.928 1.928 0 0 0-.672.462c-.196.205-.35.457-.462.756-.112.29-.168.63-.168 1.022s.056.737.168 1.036c.112.299.266.55.462.756.196.205.42.36.672.462.252.103.518.154.798.154Zm0-5.978c.504 0 .966.093 1.386.28.42.177.784.425 1.092.742.308.317.546.695.714 1.134.168.43.252.9.252 1.414 0 .513-.084.99-.252 1.428a3.302 3.302 0 0 1-.714 1.134c-.308.317-.672.57-1.092.756-.42.177-.882.266-1.386.266-.504 0-.966-.089-1.386-.266a3.468 3.468 0 0 1-1.092-.756 3.302 3.302 0 0 1-.714-1.134 3.96 3.96 0 0 1-.252-1.428c0-.513.084-.985.252-1.414.168-.439.406-.817.714-1.134a3.284 3.284 0 0 1 1.092-.742 3.37 3.37 0 0 1 1.386-.28Zm8.866 1.54a4.053 4.053 0 0 0-.574-.042c-.55 0-.998.163-1.344.49-.336.317-.504.845-.504 1.582V56h-1.316v-6.734h1.288v1.176c.122-.261.262-.471.42-.63.168-.168.341-.299.518-.392a1.78 1.78 0 0 1 .546-.21 2.72 2.72 0 0 1 .532-.056 2.038 2.038 0 0 1 .434.042v1.4Zm3.167-1.33h1.456v1.19h-1.456v3.5c0 .308.07.541.21.7.14.15.382.224.728.224.084 0 .177-.005.28-.014.102-.01.182-.023.238-.042v1.12a2.726 2.726 0 0 1-.322.07c-.159.037-.35.056-.574.056-.579 0-1.036-.163-1.372-.49-.336-.336-.504-.812-.504-1.428v-3.696h-1.288v-1.19h.364c.364 0 .625-.098.784-.294.168-.196.252-.443.252-.742v-1.092h1.204v2.128Z"/></g><defs><clipPath id="a"><path fill="#fff" d="M10.651 481.254h53.257v53.214H10.651z"/></clipPath><clipPath id="e"><path fill="#fff" d="M106.514 40.91h786.869v452.317H106.514z"/></clipPath><clipPath id="f"><path fill="#fff" d="M778.684 41h114.732v21.285H778.684z"/></clipPath><linearGradient id="d" x1="36.403" x2="7.823" y1="8.327" y2="37.769" gradientUnits="userSpaceOnUse"><stop stop-color="#6DDAD0"/><stop offset=".638" stop-color="#0096FF"/><stop offset="1" stop-color="#005FCB"/></linearGradient></defs></svg>